<?xml version="1.0" standalone="no"?>
<!DOCTYPE svg PUBLIC "-//W3C//DTD SVG 20010904//EN"
 "http://www.w3.org/TR/2001/REC-SVG-20010904/DTD/svg10.dtd">
<svg version="1.0" xmlns="http://www.w3.org/2000/svg"
 width="144.000000pt" height="144.000000pt" viewBox="0 0 144.000000 144.000000"
 preserveAspectRatio="xMidYMid meet">
<metadata>
Created by potrace 1.11, written by Peter Selinger 2001-2013
</metadata>
<g transform="translate(0.000000,144.000000) scale(0.100000,-0.100000)"
fill="#000000" stroke="none">
<path d="M0 720 l0 -720 720 0 720 0 0 720 0 720 -720 0 -720 0 0 -720z m845
386 c37 -12 32 -13 -75 -12 -105 1 -120 -1 -171 -25 -75 -35 -134 -96 -172
-177 -30 -62 -32 -75 -32 -172 0 -99 2 -110 33 -172 75 -152 226 -231 372
-194 75 20 142 65 190 129 36 49 54 56 84 34 17 -13 15 -18 -37 -70 -81 -83
-164 -120 -282 -125 -111 -5 -181 13 -264 69 -113 75 -173 188 -175 324 0 96
21 166 70 231 19 24 34 46 34 49 0 3 -25 5 -55 5 -53 0 -55 1 -45 20 9 17 21
20 82 20 54 0 79 5 104 21 91 56 242 76 339 45z m253 -90 c4 -18 -2 -19 -167
-12 l-171 7 0 -305 0 -306 -40 0 -40 0 -2 303 -3 302 -40 3 c-40 4 -40 4 -15
18 20 11 73 13 250 11 212 -2 225 -3 228 -21z m-28 -87 c7 -11 10 -22 8 -23
-57 -38 -54 -38 -82 -1 -14 18 -26 36 -26 39 0 3 20 6 45 6 35 0 47 -4 55 -21z"/>
</g>
</svg>
